<svg width="100%" height="100%" id="svg" viewBox="0 0 1440 390" xmlns="http://www.w3.org/2000/svg"><path d="M 0,400 C 0,400 0,100 0,100 C 138.26666666666665,96.66666666666666 276.5333333333333,93.33333333333333 425,92 C 573.4666666666667,90.66666666666667 732.1333333333334,91.33333333333334 903,93 C 1073.8666666666666,94.66666666666666 1256.9333333333334,97.33333333333333 1440,100 C 1440,100 1440,400 1440,400 Z" stroke="none" stroke-width="0" fill="rgba(34, 17, 34, 0.34)" fill-opacity="0.4" class="path-0" style="transition: all 300ms cubic-bezier(0.4, 0, 0.2, 1) 150ms;"></path><path d="M 0,400 C 0,400 0,200 0,200 C 149.7333333333333,212.66666666666666 299.4666666666666,225.33333333333331 475,219 C 650.5333333333334,212.66666666666669 851.8666666666668,187.33333333333334 1017,181 C 1182.1333333333332,174.66666666666666 1311.0666666666666,187.33333333333331 1440,200 C 1440,200 1440,400 1440,400 Z" stroke="none" stroke-width="0" fill="rgba(34, 17, 34, 0.34)" fill-opacity="0.53" class="path-1" style="transition: all 300ms cubic-bezier(0.4, 0, 0.2, 1) 150ms;"></path><path d="M 0,400 C 0,400 0,300 0,300 C 121.73333333333329,285.6 243.46666666666658,271.2 420,270 C 596.5333333333334,268.8 827.8666666666668,280.8 1007,288 C 1186.1333333333332,295.2 1313.0666666666666,297.6 1440,300 C 1440,300 1440,400 1440,400 Z" stroke="none" stroke-width="0" fill="rgba(34, 17, 34, 0.34)" fill-opacity="1" class="path-2" style="transition: all 300ms cubic-bezier(0.4, 0, 0.2, 1) 150ms;"></path></svg>